<svg xmlns="http://www.w3.org/2000/svg" width="65" height="64" viewBox="0 0 65 64">
    <g transform="translate(-688 -319)">
        <path fill="#ffd300" d="M719.07 371.502c-13.507-1.262-25.461-7.605-29.89-14.922.23 1.372 1.828 4.369 2.56 6.344.534 1.445 1.308 2.623 1.67 3.684 5.592 3.873 12.008 5.895 20.829 6.72 9.093.849 17.09-.24 23.396-3.186-5.534 1.378-11.63 2.006-18.565 1.36"/>
        <path fill="#ffd300" d="M709.368 344.54c-4.672-4.998-8.868-10.047-12.501-14.97-.49.63-1.04 1.37-1.619 2.207a33.35 33.35 0 0 0-1.928 3.12 173.07 173.07 0 0 0 11.828 11.56c12.231 10.883 24.148 17.945 33.672 23.04-8.585-6.216-18.992-13.782-29.452-24.958"/>
        <path fill="#ffd300" d="M727.736 335.654c-3.414-6.829-6.086-11.35-10.02-16.654-.51.054-1.368.486-2.878.723-1.132.18-2.282.062-3.198.431 5.737 6.051 10.365 12.383 15.455 21.493 5.792 10.358 8.697 18.62 11.136 27.261-1.034-9.95-4.058-20.376-10.495-33.254"/>
        <path fill="#005a9d" d="M722.182 382.466c-16.811 0-30.44-13.12-30.44-29.306s13.545-28.837 30.358-28.837c16.484 0 29.99 12.144 30.507 27.894.016-.404.026-.813.026-1.221 0-17.662-14.468-31.976-32.316-31.976-17.847 0-32.317 14.314-32.317 31.976 0 17.657 14.47 31.971 32.317 31.971 3.48 0 6.829-.547 9.968-1.552a31.655 31.655 0 0 1-8.103 1.051"/>
        <path fill="#b51e82" d="M704.934 338.07c11.483-11.833 29.347-12.73 39.9-2.002 6.446 6.554 9.006 16.44 6.803 24.918 2.985-10.089 1.158-21.524-6.421-29.229-11.101-11.285-29.822-10.578-41.306 1.258-7.561 7.794-10.279 18.582-8.083 28.263-.316-8.129 2.752-16.66 9.107-23.209"/>
        <path fill="#009065" d="M751.103 353.941c-.094-7.07-2.777-13.61-7.71-17.03-9.541-6.614-24.364-1.441-33.603 12.153-4.784 7.039-7.017 14.82-6.744 21.607-2.116-7.959-.373-17.822 5.434-26.367 9.242-13.595 25.257-18.703 35.777-11.411 6.231 4.318 9.259 12.08 8.669 20.467 0 0-.188 2.418-.413 3.473-.213 1.002-.765 3.174-.984 3.814-.218.635-.426-6.706-.426-6.706"/>
        <path fill="#f26f21" d="M719.162 350.065c-9.398 10.026-11.525 23.362-4.75 29.79.302.287.615.55.94.799-5.964-6.001-4.173-17.493 4.08-26.46 7.583-8.247 20.487-11.851 26.732-5.924 5.505 5.223 4.768 15.25-1.27 23.726 8.367-9.842 10.025-22.301 3.548-28.444-6.776-6.426-19.885-3.51-29.28 6.513"/>
        <path fill="#d92128" d="M727.652 360.269c-6.33 5.501-8.448 13.43-4.728 17.716 2.915 3.355 8.546 3.475 13.892.723-4.495 2.071-9.134 1.818-11.605-1.029-3.3-3.798-1.492-10.772 4.032-15.576 5.53-4.803 12.684-5.618 15.981-1.817 2.474 2.846 2.08 7.474-.6 11.638 3.468-4.91 4.136-10.505 1.224-13.86-3.72-4.283-11.867-3.298-18.196 2.205"/>
    </g>
</svg>